<svg width="31" height="44" viewBox="0 0 31 44" fill="none" xmlns="http://www.w3.org/2000/svg">
<path d="M13.903 4.5706L12.9998 2.67117L12.0967 4.5706L4.50807 20.5311C3.01363 23.6742 1.90271 27.3764 1.89907 30.8532C1.89541 34.3494 3.02079 37.717 6.10966 39.9369C10.5929 43.1589 15.9576 42.649 19.9532 40.2864C23.5089 38.184 24.6013 34.6735 24.4312 31.0001C24.2629 27.3629 22.8655 23.4206 21.2799 20.0859L13.903 4.5706Z" stroke="white" stroke-width="2"/>
<path d="M26.3154 4.42112L25.5 3.27253L24.6846 4.42112L23.4344 6.18206C22.2671 7.82637 21.8866 10.0279 22.3031 11.8034C22.5137 12.7012 22.9465 13.5638 23.6699 14.1717C24.4162 14.7988 25.387 15.0817 26.4978 14.9383C27.5703 14.7998 28.4482 14.3949 29.0267 13.6739C29.6011 12.9581 29.7599 12.0804 29.7058 11.2388C29.6006 9.60121 28.6739 7.74322 27.5845 6.20879L26.3154 4.42112Z" stroke="white" stroke-width="2"/>
<path d="M4 28.0445C4 28.0445 5.2653 30.2309 8.21767 29.5021C11.17 28.7733 12.8571 15.0741 19.1836 26.587C25.5101 38.1 13.2789 39.1931 13.2789 39.1931C9.8685 41.6212 11.1193 38.0282 6.10883 35.5492L4 28.0445Z" fill="#FFF9F9"/>
</svg>
