<svg width="77" height="48" viewBox="0 0 77 48" fill="none" xmlns="http://www.w3.org/2000/svg">
<ellipse cx="25.5" cy="24" rx="25.5" ry="24" fill="#FFA800"/>
<path d="M33 37.4976C33 45.9394 28.0751 44.5523 22 44.5523C15.9249 44.5523 11 45.9394 11 37.4976C11 29.0558 15.9249 22.2124 22 22.2124C28.0751 22.2124 33 29.0558 33 37.4976Z" fill="white"/>
<path d="M17 40.1749C17 45.451 13.4183 44.5841 9 44.5841C4.58172 44.5841 1 45.451 1 40.1749C1 34.8988 4.58172 30.6217 9 30.6217C13.4183 30.6217 17 34.8988 17 40.1749Z" fill="white"/>
<path d="M51 27.6868C51 36.1285 45.6274 34.7415 39 34.7415C32.3726 34.7415 27 36.1285 27 27.6868C27 19.245 32.3726 12.4016 39 12.4016C45.6274 12.4016 51 19.245 51 27.6868Z" fill="white"/>
<path d="M55.6859 30.1533C53.6908 36.8582 51.3327 34.1866 48.0194 32.25C44.7061 30.3134 41.6924 29.8452 43.6874 23.1403C45.6825 16.4354 49.9857 12.5699 53.299 14.5065C56.6123 16.4431 57.6809 23.4484 55.6859 30.1533Z" fill="white"/>
<path d="M51 39.2825C51 45.6138 45.4036 44.5735 38.5 44.5735C31.5964 44.5735 26 45.6138 26 39.2825C26 32.9511 31.5964 27.8186 38.5 27.8186C45.4036 27.8186 51 32.9511 51 39.2825Z" fill="white"/>
<path d="M77 36.1589C77 46.1835 69.8366 44.5364 61 44.5364C52.1634 44.5364 45 46.1835 45 36.1589C45 26.1343 52.1634 18.0077 61 18.0077C69.8366 18.0077 77 26.1343 77 36.1589Z" fill="white"/>
</svg>
